#ifndef USERPREFS_HAS_SPLASH
#define icon_width 64
#define icon_height 28
static uint8_t icon_bits[] = {
  0x00, 0x00, 0x00, 0x00, 0x00, 0x00, 0x00, 0x00, 
  0x00, 0x00, 0x00, 0x00, 0x00, 0x00, 0x00, 0x00, 
  0x00, 0x00, 0x00, 0x00, 0x00, 0x00, 0x00, 0x00, 
  0x00, 0x00, 0x00, 0x00, 0x00, 0x00, 0x00, 0x00, 
  0x00, 0x00, 0x00, 0x00, 0x00, 0x00, 0x00, 0x00, 
  0x00, 0x00, 0x00, 0x00, 0x00, 0x00, 0x00, 0x00, 
  0x00, 0x00, 0x00, 0x00, 0x00, 0x00, 0x00, 0x00, 
  0xff, 0x7f, 0x00, 0x00, 0x00, 0x00, 0x00, 0x00, 
  0x01, 0x40, 0xc0, 0x0f, 0x00, 0x00, 0x00, 0x00, 
  0x7f, 0x7f, 0x20, 0x10, 0x00, 0x00, 0x00, 0x00, 
  0x40, 0x01, 0x10, 0x20, 0x00, 0x00, 0x00, 0x00, 
  0x40, 0x01, 0x08, 0x00, 0x00, 0x00, 0x00, 0x00, 
  0x40, 0x01, 0x08, 0x00, 0x00, 0x00, 0x00, 0x00, 
  0x40, 0x01, 0x04, 0x00, 0x00, 0x00, 0x00, 0x00, 
  0x40, 0x01, 0x04, 0x00, 0x7c, 0xc8, 0x47, 0x3e, 
  0x40, 0xfd, 0x05, 0x00, 0x82, 0x28, 0x48, 0x41, 
  0x40, 0x05, 0x05, 0x00, 0x01, 0x19, 0xd0, 0x80, 
  0x40, 0xfd, 0x05, 0x80, 0x00, 0x0a, 0x50, 0x80, 
  0x40, 0x01, 0x04, 0x80, 0x00, 0x0a, 0x50, 0x80, 
  0x40, 0x01, 0x04, 0x80, 0x00, 0x0a, 0x50, 0x80, 
  0x40, 0x01, 0x04, 0x80, 0x00, 0x0a, 0x50, 0x80, 
  0x40, 0x01, 0x08, 0x80, 0x00, 0x0a, 0x50, 0x80, 
  0x40, 0x01, 0x08, 0x80, 0x00, 0x0a, 0x50, 0x80, 
  0x40, 0x01, 0x10, 0x20, 0x01, 0x09, 0x50, 0x80, 
  0x40, 0x01, 0x20, 0x10, 0x82, 0x08, 0x50, 0x80, 
  0x40, 0x01, 0xc0, 0x0f, 0x7c, 0x08, 0x50, 0x80, 
  0xc0, 0x01, 0x00, 0x00, 0x00, 0x00, 0x00, 0x00, 
  0x00, 0x00, 0x00, 0x00, 0x00, 0x00, 0x00, 0x00, };
#endif